HIERARCHY
ROOT Hips
{
  OFFSET 5.80788e-005 67.184 3.4734
  CHANNELS 6 Xposition Yposition Zposition Zrotation Xrotation Yrotation
  JOINT Chest
  {
    OFFSET 0 8.7983 -4.7612
    CHANNELS 3 Zrotation Xrotation Yrotation
    JOINT Chest2
    {
      OFFSET 0 8.0291 0.4195
      CHANNELS 3 Zrotation Xrotation Yrotation
      JOINT Chest3
      {
        OFFSET 0 9.9351 -2.2114
        CHANNELS 3 Zrotation Xrotation Yrotation
        JOINT Neck
        {
          OFFSET 0 22.3885 -0.4656
          CHANNELS 3 Zrotation Xrotation Yrotation
          JOINT Head
          {
            OFFSET -0.0001 12.643 3.4389
            CHANNELS 3 Zrotation Xrotation Yrotation
            End Site
            {
              OFFSET 0.0001 17.6655 0.5274
            }
          }
        }
        JOINT LeftCollar
        {
          OFFSET 2.2603 21.606 7.4023
          CHANNELS 3 Zrotation Xrotation Yrotation
          JOINT LeftShoulder
          {
            OFFSET 13.5163 -1.1332 -5.0146
            CHANNELS 3 Zrotation Xrotation Yrotation
            JOINT LeftElbow
            {
              OFFSET -0.0995 -28.05 -0.2431
              CHANNELS 3 Zrotation Xrotation Yrotation
              JOINT LeftWrist
              {
                OFFSET 0.0679 -23.3996 -0.1402
                CHANNELS 3 Zrotation Xrotation Yrotation
                JOINT LeftFinger1
                {
                  OFFSET 0.7932 -9.069 2.5189
                  CHANNELS 3 Zrotation Xrotation Yrotation
                  JOINT LeftFinger11
                  {
                    OFFSET -0.8272 -3.3923 0.5977
                    CHANNELS 3 Zrotation Xrotation Yrotation
                    JOINT LeftFinger12
                    {
                      OFFSET -0.5649 -2.3158 0.4082
                      CHANNELS 3 Zrotation Xrotation Yrotation
                      End Site
                      {
                        OFFSET -0.4919 -1.6479 0.2673
                      }
                    }
                  }
                }
                JOINT LeftFinger2
                {
                  OFFSET 0.9159 -9.2044 0.2193
                  CHANNELS 3 Zrotation Xrotation Yrotation
                  JOINT LeftFinger21
                  {
                    OFFSET 0.0117 -4.1944 -0.0248
                    CHANNELS 3 Zrotation Xrotation Yrotation
                    JOINT LeftFinger22
                    {
                      OFFSET 0.0071 -2.3249 -0.0142
                      CHANNELS 3 Zrotation Xrotation Yrotation
                      End Site
                      {
                        OFFSET -0.1475 -2.0882 0.0028
                      }
                    }
                  }
                }
                JOINT LeftFinger3
                {
                  OFFSET 0.6113 -8.7231 -2.0637
                  CHANNELS 3 Zrotation Xrotation Yrotation
                  JOINT LeftFinger31
                  {
                    OFFSET -0.1927 -3.8059 -0.2383
                    CHANNELS 3 Zrotation Xrotation Yrotation
                    JOINT LeftFinger32
                    {
                      OFFSET -0.1091 -2.1688 -0.1362
                      CHANNELS 3 Zrotation Xrotation Yrotation
                      End Site
                      {
                        OFFSET -0.2358 -1.9176 -0.0906
                      }
                    }
                  }
                }
                JOINT LeftFinger4
                {
                  OFFSET -0.6151 -8.0947 -3.5641
                  CHANNELS 3 Zrotation Xrotation Yrotation
                  JOINT LeftFinger41
                  {
                    OFFSET -0.4882 -2.341 -0.6462
                    CHANNELS 3 Zrotation Xrotation Yrotation
                    JOINT LeftFinger42
                    {
                      OFFSET -0.3575 -1.7167 -0.4742
                      CHANNELS 3 Zrotation Xrotation Yrotation
                      End Site
                      {
                        OFFSET -0.4187 -1.5237 -0.3496
                      }
                    }
                  }
                }
                JOINT LeftFinger0
                {
                  OFFSET -1.42 -1.8761 1.4223
                  CHANNELS 3 Zrotation Xrotation Yrotation
                  JOINT LeftFinger01
                  {
                    OFFSET -1.1471 -3.4929 2.6334
                    CHANNELS 3 Zrotation Xrotation Yrotation
                    JOINT LeftFinger02
                    {
                      OFFSET -0.823 -2.3 1.6571
                      CHANNELS 3 Zrotation Xrotation Yrotation
                      End Site
                      {
                        OFFSET -0.5822 -1.6914 1.1582
                      }
                    }
                  }
                }
              }
            }
          }
        }
        JOINT RightCollar
        {
          OFFSET -2.2603 21.606 7.4023
          CHANNELS 3 Zrotation Xrotation Yrotation
          JOINT RightShoulder
          {
            OFFSET -13.5187 -1.1334 -5.0155
            CHANNELS 3 Zrotation Xrotation Yrotation
            JOINT RightElbow
            {
              OFFSET 0.0994 -28.0499 -0.2431
              CHANNELS 3 Zrotation Xrotation Yrotation
              JOINT RightWrist
              {
                OFFSET -0.0679 -23.3996 -0.1402
                CHANNELS 3 Zrotation Xrotation Yrotation
                JOINT RightFinger1
                {
                  OFFSET -0.7932 -9.0691 2.5189
                  CHANNELS 3 Zrotation Xrotation Yrotation
                  JOINT RightFinger11
                  {
                    OFFSET 0.8272 -3.3923 0.5977
                    CHANNELS 3 Zrotation Xrotation Yrotation
                    JOINT RightFinger12
                    {
                      OFFSET 0.565 -2.3158 0.4082
                      CHANNELS 3 Zrotation Xrotation Yrotation
                      End Site
                      {
                        OFFSET 0.4919 -1.6479 0.2673
                      }
                    }
                  }
                }
                JOINT RightFinger2
                {
                  OFFSET -0.916 -9.2044 0.2193
                  CHANNELS 3 Zrotation Xrotation Yrotation
                  JOINT RightFinger21
                  {
                    OFFSET -0.0117 -4.1944 -0.0248
                    CHANNELS 3 Zrotation Xrotation Yrotation
                    JOINT RightFinger22
                    {
                      OFFSET -0.0071 -2.3249 -0.0142
                      CHANNELS 3 Zrotation Xrotation Yrotation
                      End Site
                      {
                        OFFSET 0.1475 -2.0882 0.0028
                      }
                    }
                  }
                }
                JOINT RightFinger3
                {
                  OFFSET -0.6113 -8.7231 -2.0637
                  CHANNELS 3 Zrotation Xrotation Yrotation
                  JOINT RightFinger31
                  {
                    OFFSET 0.1927 -3.8059 -0.2383
                    CHANNELS 3 Zrotation Xrotation Yrotation
                    JOINT RightFinger32
                    {
                      OFFSET 0.1091 -2.1688 -0.1362
                      CHANNELS 3 Zrotation Xrotation Yrotation
                      End Site
                      {
                        OFFSET 0.2358 -1.9176 -0.0906
                      }
                    }
                  }
                }
                JOINT RightFinger4
                {
                  OFFSET 0.6151 -8.0947 -3.564
                  CHANNELS 3 Zrotation Xrotation Yrotation
                  JOINT RightFinger41
                  {
                    OFFSET 0.4882 -2.341 -0.6462
                    CHANNELS 3 Zrotation Xrotation Yrotation
                    JOINT RightFinger42
                    {
                      OFFSET 0.3574 -1.7166 -0.4742
                      CHANNELS 3 Zrotation Xrotation Yrotation
                      End Site
                      {
                        OFFSET 0.4187 -1.5237 -0.3496
                      }
                    }
                  }
                }
                JOINT RightFinger0
                {
                  OFFSET 1.4199 -1.8761 1.4221
                  CHANNELS 3 Zrotation Xrotation Yrotation
                  JOINT RightFinger01
                  {
                    OFFSET 1.1472 -3.4929 2.6336
                    CHANNELS 3 Zrotation Xrotation Yrotation
                    JOINT RightFinger02
                    {
                      OFFSET 0.8229 -2.3 1.6571
                      CHANNELS 3 Zrotation Xrotation Yrotation
                      End Site
                      {
                        OFFSET 0.5822 -1.6914 1.1582
                      }
                    }
                  }
                }
              }
            }
          }
        }
      }
    }
  }
  JOINT RightHip
  {
    OFFSET -9.412 3.9771 -0.7758
    CHANNELS 3 Zrotation Xrotation Yrotation
    JOINT RightKnee
    {
      OFFSET -0.7531 -40.938 0
      CHANNELS 3 Zrotation Xrotation Yrotation
      JOINT RightAnkle
      {
        OFFSET 0 -40.1986 0
        CHANNELS 3 Zrotation Xrotation Yrotation
        JOINT RightToe
        {
          OFFSET 0 -4.4182 9.239
          CHANNELS 3 Zrotation Xrotation Yrotation
          End Site
          {
            OFFSET 0 0 6.1981
          }
        }
      }
    }
  }
  JOINT LeftHip
  {
    OFFSET 9.4119 3.9773 -0.7758
    CHANNELS 3 Zrotation Xrotation Yrotation
    JOINT LeftKnee
    {
      OFFSET 0.7532 -40.9383 0
      CHANNELS 3 Zrotation Xrotation Yrotation
      JOINT LeftAnkle
      {
        OFFSET 0 -40.1986 0
        CHANNELS 3 Zrotation Xrotation Yrotation
        JOINT LeftToe
        {
          OFFSET 0 -4.4182 9.239
          CHANNELS 3 Zrotation Xrotation Yrotation
          End Site
          {
            OFFSET 0 0 6.1981
          }
        }
      }
    }
  }
}
MOTION
Frames:	4
Frame Time:	0.0333333
5.80788e-005 67.184 3.4734 0 0 -0 0 0 -0 0 0 -0 0 0 -0 0 0 -0 0 0 -0 0 0 -12.5014 88.1196 14.2451 10.6914 -0.00160068 -0.00239207 0.000740045 -8.4365e-005 7.00714e-005 -9.52055e-007 9.93923e-017 -1.98785e-016 -1.59028e-015 9.93923e-017 -5.96354e-016 -1.59028e-015 -9.93923e-017 -5.96354e-016 -1.59028e-015 9.93923e-017 -1.98785e-016 -1.59028e-015 -0.0128176 0.00232552 8.52707e-005 9.93923e-017 5.96354e-016 -0 9.93923e-017 -1.98785e-016 -1.59028e-015 -0.0160551 0.00299681 0.000857156 -2.48481e-016 0 3.18055e-015 9.93923e-017 -1.98785e-016 -1.59028e-015 -0.0125865 0.0031206 0.00282719 0 1.98785e-016 -0 9.93923e-017 -1.98785e-016 -1.59028e-015 9.93923e-017 -5.96354e-016 -1.59028e-015 -9.93923e-017 -5.96354e-016 -1.59028e-015 -0.865644 0.16582 7.03859 -88.0329 10.2057 -10.5567 0.0015593 -0.00248883 -0.000788628 7.87605e-005 4.10553e-005 1.24965e-005 -3.97569e-016 -7.95139e-016 3.18055e-015 -1.98785e-016 -3.97569e-016 3.18055e-015 -1.98785e-016 0 3.18055e-015 -3.97569e-016 -7.95139e-016 3.18055e-015 0.0129473 0.00231697 -8.70038e-005 9.93923e-017 -7.95139e-016 1.59028e-015 -3.97569e-016 -7.95139e-016 3.18055e-015 0.0163314 0.00303369 -0.000872333 3.97569e-016 7.95139e-016 -3.18055e-015 -3.97569e-016 -7.95139e-016 3.18055e-015 0.0145763 0.00367772 -0.00326275 9.93923e-017 -3.97569e-016 -0 -3.97569e-016 -7.95139e-016 3.18055e-015 -1.98785e-016 -3.97569e-016 3.18055e-015 -1.98785e-016 0 3.18055e-015 3.42485 1.36937 -0.0640303 0.000136572 0.69354 0.00145564 -3.42573 -2.06297 -0.0607933 -3.19502e-024 0 -1.48106e-024 -3.42498 1.36123 0.0639712 -6.769e-005 0.712612 -0.0012277 3.42582 -2.07388 0.0612819 2.55305e-023 0 -2.31416e-026 
-0.441307 20.95 8.96561 37.1666 -66.5989 0.142239 -6.97336 2.81243 -2.50516 -13.8445 5.90616 -4.65861 -13.8445 5.90619 -4.65864 -20.1602 -0.483033 5.62683 -0.816589 -1.34854 21.6635 -13.0029 10.3657 -30.3353 85.3745 33.7292 43.5397 -1.09896 -29.6504 -4.44023 -3.0906 -16.2952 43.3117 -4.77083e-015 -6.36111e-015 1.59028e-015 -1.59028e-015 3.18055e-015 3.18055e-015 -1.59028e-015 -3.18055e-015 1.59028e-015 -4.77083e-015 -6.36111e-015 1.59028e-015 -0.0128117 0.00232863 9.34701e-005 4.77083e-015 -3.18055e-015 1.59028e-015 -4.77083e-015 -6.36111e-015 1.59028e-015 -0.0160592 0.00299341 0.000862407 8.82781e-032 -3.18055e-015 1.59028e-015 -4.77083e-015 -6.36111e-015 1.59028e-015 -0.0125711 0.0031292 0.00283388 -3.18055e-015 3.18055e-015 -3.18055e-015 -4.77083e-015 -6.36111e-015 1.59028e-015 -1.59028e-015 3.18055e-015 3.18055e-015 -1.59028e-015 -3.18055e-015 1.59028e-015 0.149415 3.37953 -17.7244 -79.9896 -8.85616 14.4595 -44.0679 -37.8511 -28.1344 4.41159 -1.31339 8.16306 -8.21999e-007 1.24432e-006 -1.15733e-007 5.29669e-031 4.77083e-015 -6.36111e-015 -3.18055e-015 3.18055e-015 -6.36111e-015 -8.21999e-007 1.24432e-006 -1.15733e-007 0.0129143 0.00231194 -8.61572e-005 -7.95139e-016 0 -9.54166e-015 -8.21999e-007 1.24432e-006 -1.15733e-007 0.0163358 0.00303496 -0.000872514 1.59028e-015 6.36111e-015 -0 -8.21999e-007 1.24432e-006 -1.15733e-007 0.0145528 0.00366961 -0.0032586 -7.95139e-016 -1.59028e-015 -0 -8.21999e-007 1.24432e-006 -1.15733e-007 5.29669e-031 4.77083e-015 -6.36111e-015 -3.18055e-015 3.18055e-015 -6.36111e-015 -32.756 -48.8501 -29.9433 -4.00963 55.6009 2.98136 8.95373 5.57509 -2.88827 -1.64386e-007 1.57238e-007 -2.17108e-006 41.8827 -60.0184 74.4228 -5.15549 -0.0274221 0.475863 7.92005 8.0031 -6.31077 -8.18654e-007 -9.08652e-008 1.71344e-006 
-4.07702 -1.09158 7.05663 -124.609 -83.0867 -178.301 -9.98207 3.94119 -3.73464 -19.7663 8.46437 -6.75315 -19.7663 8.46436 -6.75314 -29.124 -0.881717 8.08992 -0.783153 -1.92305 31.4363 -16.7445 14.2099 -38.7874 84.0431 42.4613 57.7964 -2.9354 -43.2984 -8.0939 -4.22829 -23.7534 62.5114 1.24872e-006 3.01917e-006 1.015e-006 -4.77083e-015 3.18055e-015 9.54166e-015 -3.18055e-015 1.59028e-015 1.27222e-014 1.24872e-006 3.01917e-006 1.015e-006 -0.0128054 0.00232033 8.4269e-005 -3.18055e-015 -7.95139e-015 -3.18055e-015 1.24872e-006 3.01917e-006 1.015e-006 -0.0160413 0.00299041 0.000857208 4.77083e-015 1.93284e-006 -3.18055e-015 1.24872e-006 3.01917e-006 1.015e-006 -0.0125724 0.00311611 0.00282047 6.36111e-015 4.77083e-015 -0 1.24872e-006 3.01917e-006 1.015e-006 -4.77083e-015 3.18055e-015 9.54166e-015 -3.18055e-015 1.59028e-015 1.27222e-014 1.49052 4.37232 -28.8401 -76.6808 -17.694 25.3131 -66.8872 -53.1933 -42.2871 6.10177 -2.01078 11.57 -1.29548e-005 -1.85414e-006 -4.00241e-006 -1.59028e-015 -6.36111e-015 3.18055e-015 1.30551e-005 3.25832e-006 4.03874e-006 -1.29548e-005 -1.85414e-006 -4.00241e-006 0.0129882 0.00232597 -8.49177e-005 -1.39766e-006 -1.50717e-006 3.33158e-006 -1.29548e-005 -1.85414e-006 -4.00241e-006 0.0163595 0.00303722 -0.000871128 7.95139e-015 6.36111e-015 1.27222e-014 -1.29548e-005 -1.85414e-006 -4.00241e-006 0.0146308 0.00369434 -0.00326515 7.95139e-016 0 -6.36111e-015 -1.29548e-005 -1.85414e-006 -4.00241e-006 -1.59028e-015 -6.36111e-015 3.18055e-015 1.30551e-005 3.25832e-006 4.03874e-006 -78.0701 -59.5812 -66.3126 -16.9966 78.7628 14.9694 15.1362 10.0388 -4.19893 -8.62775e-006 -3.70275e-006 -6.68519e-006 84.5217 -40.46 114.777 -7.46709 0.00134872 0.756147 10.6919 11.7527 -9.71843 -2.06889e-007 1.66368e-006 -5.1339e-008 
-3.35216 4.05521 7.64908 -90.0337 -88.781 -140.033 -9.26094 3.99487 -3.40714 -18.3427 8.48123 -6.14838 -18.3427 8.48122 -6.14839 -26.9686 -1.20541 7.38858 -0.640279 -2.09996 29.2998 -16.0208 13.424 -36.8788 84.3253 40.6367 52.9852 -2.62673 -41.252 -7.22508 -3.98781 -22.0979 58.2539 -1.59028e-015 -9.54166e-015 3.18055e-015 1.76424e-006 3.84441e-006 -7.81156e-007 3.26264e-006 -2.00823e-006 7.59584e-007 -1.59028e-015 -9.54166e-015 3.18055e-015 -0.0128171 0.00232528 8.74907e-005 3.18055e-015 3.18055e-015 3.18055e-015 -1.59028e-015 -9.54166e-015 3.18055e-015 -0.0159797 0.00298719 0.000856147 2.29296e-006 3.92737e-006 1.55395e-006 -1.59028e-015 -9.54166e-015 3.18055e-015 -0.0125088 0.00311033 0.00280637 4.77083e-015 3.49861e-014 9.54166e-015 -1.59028e-015 -9.54166e-015 3.18055e-015 1.76424e-006 3.84441e-006 -7.81156e-007 3.26264e-006 -2.00823e-006 7.59584e-007 1.30614 4.24322 -26.1883 -77.355 -15.7417 22.9379 -60.8802 -49.6767 -38.4056 5.06143 -2.05665 10.2787 -5.10027e-007 -1.83692e-006 1.54695e-006 -0 0 3.18055e-015 5.10027e-007 -1.50636e-007 -1.54695e-006 -5.10027e-007 -1.83692e-006 1.54695e-006 0.0129524 0.00231865 -8.49009e-005 -7.74412e-023 -1.39506e-006 -3.18055e-015 -5.10027e-007 -1.83692e-006 1.54695e-006 0.0163113 0.0030244 -0.000869459 5.09963e-007 4.41843e-007 -1.54692e-006 -5.10027e-007 -1.83692e-006 1.54695e-006 0.014587 0.003678 -0.00326449 -7.89008e-007 -2.54963e-006 3.61046e-006 -5.10027e-007 -1.83692e-006 1.54695e-006 -0 0 3.18055e-015 5.10027e-007 -1.50636e-007 -1.54695e-006 -63.9131 -58.3267 -54.7131 -10.8821 73.682 9.15781 13.906 8.88558 -4.08146 -1.53467e-006 2.8939e-006 -6.72033e-007 78.9921 -46.1891 110.85 -6.95424 0.0499739 0.696293 10.1956 10.8193 -9.95088 -9.97142e-007 2.0483e-006 -3.77537e-007 
